<svg version="1.1" viewBox="0 0 26 52" xmlns="http://www.w3.org/2000/svg">
<g transform="translate(0 -1000.4)" fill="#404040">
<path transform="translate(0 1000.4)" d="m5 15v6h6v-2h-4v-4z" color="#000000"/>
<path transform="translate(0 1000.4)" d="m21 15v6h-6v-2h4v-4z" color="#000000"/>
<path d="m10 1037.4v4l1 1h4l1-1v-4l-1-1h-4z" color="#000000"/>
<path d="m5 1011.4v-6h6v2h-4v4z" color="#000000"/>
<path d="m21 1011.4v-6h-6v2h4v4z" color="#000000"/>
<path d="m5 1041.4v6h6v-2h-4v-4z" color="#000000"/>
<path d="m21 1041.4v6h-6v-2h4v-4z" color="#000000"/>
<path d="m5 1037.4v-6h6v2h-4v4z" color="#000000"/>
<path d="m21 1037.4v-6h-6v2h4v4z" color="#000000"/>
</g>
</svg>