<svg version="1.1" viewBox="0 0 35 25" xmlns="http://www.w3.org/2000/svg">
<rect width="35" height="25" fill="#fecb2e"/>
<g transform="translate(.5375 10.101)">
<path transform="translate(-2.394,-11.413)" d="m8.36 11.413-1.084 1.473h5.907c0.3 0 0.295 0.112 0.149 0.311s-0.4 0.549-0.548 0.754c-0.077 0.1-0.215 0.292 0.244 0.292h2.416l0.716-0.973c0.444-0.6 0.039-1.856-1.549-1.856h-6.251z"/>
<path transform="translate(-.722 -11.413)" d="m5.165 16.211 2.177-2.959h2.7c0.3 0 0.295 0.113 0.149 0.311l-0.551 0.751c-0.077 0.1-0.215 0.292 0.244 0.292h3.616a3.757 3.757 0 0 1-3.03 1.6zm12.468-1.605-1.181 1.605h-3.114l1.181-1.605zm4.77-0.364h-7.616l2.083-2.829h3.113l-1.193 1.622h1.389l1.195-1.622h3.113zm-0.267 0.364-1.181 1.605h-3.112l1.181-1.605zm-21.414 0.633h4.587l-0.25 0.34h-4.337zm0-0.633h5.053l-0.251 0.34h-4.802zm0 1.266h4.122l-0.25 0.339h-3.872zm33.925-0.293h-4.571l0.251-0.34h4.32zm0 0.632h-5.035l0.249-0.339h4.786zm-3.854-1.605h3.854v0.341h-4.1zm-1.993-3.193-2.083 2.829h-3.3l2.083-2.829zm-5.65 3.193s-0.227 0.311-0.338 0.46c-0.39 0.529-0.045 1.144 1.231 1.144h5l1.181-1.6h-7.074z"/>
</g>
</svg>