<svg version="1.1" viewBox="0 0 119.78 71.712" xmlns="http://www.w3.org/2000/svg" xmlns:xlink="http://www.w3.org/1999/xlink">
<defs>
<polygon id="a" points="9.8196 0.014727 9.8196 14.006 0.12736 14.006 0.12736 0.014727"/>
<polygon id="b" points="9.8196 0.18998 9.8196 14.182 0.12736 14.182 0.12736 0.18998"/>
<polygon id="c" points="119.79 71.985 119.79 0.27273 0 0.27273 0 71.985"/>
</defs>
<g transform="translate(-2e-4 -.2728)" fill="none" fill-rule="evenodd">
<path d="m63.832 46.041h-3.313v-9.456c0-1.9912-0.88394-3.063-2.4892-3.1865-1.0006-0.07746-2.5865 0.15709-3.7373 0.41345v12.229h-3.3144v-14.571s4.03-0.89209 7.6698-0.88937c1.5743 0.0016 2.8325 0.55746 3.7722 1.4937 0.94078 0.936 1.412 2.2402 1.412 3.9123v10.054z" fill="#424143"/>
<path d="m119.72 46.142c-0.54453 0.13773-1.1105 0.20645-1.6957 0.20645-1.8673 0-3.1011-0.41264-3.7019-1.2376-0.47973-0.64855-0.71863-1.8777-0.71863-3.687v-15.164h3.2705v4.2881h2.9036v2.6534h-2.9036v8.0165c0 0.86564 0.11066 1.4365 0.33282 1.7119 0.26197 0.35291 0.81721 0.52964 1.666 0.52964 0.2422 0 0.52421-0.01909 0.84686-0.05864v2.7417z" fill="#424143"/>
<path d="m17.333 36.171s-3.8795 1.4896-8.6664 1.4896c-4.7863 0-8.6664-1.4896-8.6664-1.4896s3.8801-1.4894 8.6664-1.4894c4.7868 0 8.6664 1.4894 8.6664 1.4894" fill="#ffcb04"/>
<g transform="translate(19.497 .258)">
<mask id="z" fill="#ffffff">
<use width="100%" height="100%" xlink:href="#a"/>
</mask>
<path d="m9.8196 14.006s-3.4377-2.2994-6.1145-6.1628c-2.676-3.8635-3.5778-7.8284-3.5778-7.8284s3.4374 2.2994 6.1145 6.1625c2.6762 3.864 3.5778 7.8286 3.5778 7.8286" fill="#ffcb04" mask="url(#z)"/>
</g>
<path d="m20.539 23.717s-4.1437-0.45845-8.3698-2.6468c-4.2261-2.1875-6.9336-5.2762-6.9336-5.2762s4.1437 0.45845 8.3698 2.6465c4.2261 2.1878 6.9336 5.2765 6.9336 5.2765" fill="#ffcb04"/>
<path d="m28.901 43.344c2.4599-0.02318 5.4266-1.947 5.4266-1.947s-6.8793-2.0678-6.4462-8.196c1.3565-10.057 9.5552-17.953 19.819-19.224-1.0885-0.14918-2.2001-0.22718-3.332-0.22249-12.695 0.05585-22.94 10.123-22.883 22.484 0.05708 12.361 10.395 22.336 23.09 22.281 1.0589-0.0046 2.0988-0.08505 3.1189-0.22469-9.008-1.1179-16.34-7.3023-18.97-15.475" fill="#ffcb04"/>
<g transform="translate(19.497,57.803)">
<mask id="y" fill="#ffffff">
<use width="100%" height="100%" xlink:href="#b"/>
</mask>
<path d="m9.8196 0.18998s-3.4377 2.2996-6.1145 6.1636c-2.676 3.8629-3.5778 7.8284-3.5778 7.8284s3.4374-2.2996 6.1145-6.1631c2.6762-3.8635 3.5778-7.8289 3.5778-7.8289" fill="#ffcb04" mask="url(#y)"/>
</g>
<path d="m20.539 48.541s-4.1437 0.45845-8.3698 2.6468c-4.2261 2.1873-6.9336 5.2759-6.9336 5.2759s4.1437-0.45845 8.3698-2.6463c4.2261-2.1881 6.9336-5.2765 6.9336-5.2765" fill="#ffcb04"/>
<mask id="x" fill="#ffffff">
<use width="100%" height="100%" xlink:href="#c"/>
</mask>
<g fill="#424143">
<polygon points="47.701 26.243 44.322 26.243 44.322 46.025 47.701 46.025" mask="url(#x)"/>
<path d="m78.196 33.003c0-2.3984-1.1816-3.597-3.5423-3.597h-4.1662v7.1359h4.1042c1.1311 0 2.0147-0.30927 2.6504-0.92891 0.63542-0.61909 0.95396-1.4891 0.95396-2.61m3.4141 0c0 2.0247-0.63213 3.6518-1.8914 4.8807-1.2629 1.2284-2.9745 1.8423-5.1347 1.8423h-4.0965v6.2512h-3.3787v-19.786h7.233c2.3415 0 4.139 0.60545 5.3909 1.8145 1.2511 1.2087 1.8774 2.8745 1.8774 4.9972" mask="url(#x)"/>
<path d="m93.829 38.201c0-1.4899-0.34902-2.6703-1.0438-3.5425-0.69831-0.87164-1.6212-1.3085-2.7729-1.3085-1.1495 0-2.0741 0.44182-2.771 1.323-0.69474 0.88255-1.0429 2.0575-1.0429 3.528 0 1.4888 0.34819 2.6695 1.0429 3.5416 0.69693 0.87273 1.6215 1.3085 2.771 1.3085 1.1517 0 2.0746-0.43582 2.7729-1.3085 0.69474-0.87218 1.0438-2.0528 1.0438-3.5416m3.4212-0.01527c0 2.3787-0.67085 4.2957-2.0139 5.7502-1.3439 1.455-3.0829 2.1815-5.224 2.1815-2.138 0-3.8809-0.72655-5.2226-2.1815-1.3436-1.4545-2.0139-3.3715-2.0139-5.7502 0-2.3774 0.6703-4.29 2.0139-5.7352 1.3417-1.4441 3.0846-2.1668 5.2226-2.1668 2.1605 0 3.907 0.72273 5.2396 2.1668 1.3318 1.4452 1.9983 3.3578 1.9983 5.7352" mask="url(#x)"/>
<path d="m111.64 40.928c0 1.4945-0.58545 2.7226-1.7574 3.6865-1.1698 0.96382-2.7152 1.4435-4.6314 1.4435-2.9893 0-5.3-0.88418-6.9358-2.6536l2.5131-2.0929c1.2522 1.2202 2.7161 1.8284 4.3911 1.8284 0.93007 0 1.6665-0.18191 2.2119-0.54545 0.5448-0.36382 0.81748-0.81982 0.81748-1.371 0-0.62864-0.31359-1.0617-0.93886-1.2974-0.36357-0.13745-1.3324-0.324-2.9075-0.56073-1.8978-0.27436-3.2502-0.68755-4.0591-1.2382-0.94847-0.66764-1.4213-1.6707-1.4213-3.0065 0-1.3571 0.57446-2.4919 1.725-3.4072 1.1503-0.91336 2.685-1.371 4.6039-1.371 2.3198 0 4.2989 0.75764 5.9349 2.271l-1.9689 2.064c-1.1909-1.0407-2.5439-1.563-4.0583-1.563-1.9381 0-2.9061 0.54164-2.9061 1.6225 0 0.62836 0.4432 1.0615 1.3326 1.2976 1.2508 0.19527 2.4923 0.40227 3.7247 0.618 2.886 0.53127 4.3299 1.9563 4.3299 4.2755" mask="url(#x)"/>
</g>
</g>
</svg>
