<svg version="1.1" viewBox="0 0 124 52" xmlns="http://www.w3.org/2000/svg">
<path d="m22.704 52c-9.5198 0-18.124-5.3169-22.366-13.566-0.84353-1.6213-0.048202-3.6241 1.6871-4.2201 1.422-0.4769 2.9885 0.1192 3.6633 1.4543 3.2295 6.2944 9.7609 10.348 17.015 10.348 6.1457 0 11.761-2.9087 15.304-7.6057 1.1328-1.5259 2.7234-3.934 2.7234-7.8203l5.4227 5.6268s-0.2892 0.8107-0.8435 1.8359-0.7712 1.4067-1.1086 1.9551c-4.4828 7.3434-12.581 11.993-21.498 11.993z" fill="#5ab333"/>
<g fill="#58595b">
<path d="m34.706 25.772c-0.241-3.028-1.5906-5.4123-3.9043-6.962-1.9522-1.2875-4.5792-1.9313-7.7846-1.9313h-3.5428v-4.8877h10.146c1.5184 0 2.7716-1.1444 2.7716-2.5988 0-1.4544-1.2532-2.6704-2.7716-2.6704h-12.918c-1.5184 0-2.7716 1.216-2.7716 2.7419v10.014c0 1.502 1.2291 2.7418 2.7716 2.7418h6.3867c4.29 0 5.6396 1.9313 5.6396 3.934 0 1.979-1.0845 5.1262-5.5673 5.1262-3.7115 0-5.9288-2.4797-6.3867-2.885-1.3737-1.2159-2.7475-1.1444-3.6874-0.3338-1.181 1.0252-1.0364 2.4558-0.3133 3.5287 0.8435 1.2637 4.1212 5.1738 10.387 5.1738 3.5669 0 6.7001-1.2636 8.845-3.5525 1.9281-2.0505 2.8921-4.7447 2.6993-7.4388z"/>
<path d="m96.814 29.373c-3.0126-0.143-5.8806-1.359-7.1821-2.5273-1.446-1.2874-1.7111-3.0041-0.5784-3.9578 1.4701-1.2636 2.9403-0.0954 3.591 0.2861 3.2777 2.0028 5.9047 1.8597 7.158 0.8822 0.7228-0.5722 1.0368-1.2637 0.9158-1.8597-0.169-1.0491-1.4461-1.4306-3.0126-1.8597-1.1809-0.31-4.3623-1.2398-5.8565-2.0982-2.1691-1.2398-3.6392-3.2902-3.1331-6.1513 0.5302-3.028 3.1572-5.293 6.6036-5.603 4.3623-0.40532 6.4836 0.64375 7.7366 1.3113 1.783 0.9537 2.121 2.9087 1.181 4.0055-0.434 0.5007-1.687 1.0014-2.965 0.4292-4.3137-1.8836-6.5069-1.3591-7.0612-0.2623-0.6025 1.1683 0.482 2.3127 1.8557 2.8134 0.0723 0.0238 0.9159 0.3576 2.0727 0.7391 1.0122 0.3338 2.2418 0.6676 3.6148 1.1683 2.507 0.9298 4.628 2.8849 4.314 6.1752-0.168 1.7405-1.205 3.6717-2.771 4.8161-1.181 0.8345-3.4466 1.8359-6.4833 1.6928z"/>
<path d="m122.72 24.105c-0.627-0.2385-1.566-0.1431-2.121-0.0477-0.747 0.1192-1.904 0.2623-2.868 0-1.663-0.4769-2.265-1.4067-2.265-2.8373v-9.6084h3.928c1.494 0 2.699-1.1445 2.699-2.5512 0-1.4067-1.205-2.5511-2.699-2.5511h-3.928v-3.7194c0-1.5498-1.278-2.7896-2.82-2.7896-1.567 0-2.82 1.2636-2.82 2.7896v3.6717h-1.277c-1.494 0-2.699 1.1444-2.699 2.5511 0 1.4067 1.205 2.5512 2.699 2.5512h1.277v9.6323c0 4.5301 3.639 8.2018 8.291 8.2018 4.651 0 5.88-1.6451 5.88-3.1949 0-1.0729-0.385-1.7643-1.277-2.0981z"/>
<path d="m76.232 6.4849c-6.2421 0-11.303 5.1261-11.303 11.444 0 6.3183 5.0612 11.444 11.303 11.444s11.303-5.1261 11.303-11.444c0-6.3182-5.0853-11.444-11.303-11.444zm0 17.739c-3.2295 0-5.8324-2.265-5.8324-6.2944 0-4.0293 2.627-6.3182 5.8324-6.3182 3.2295 0 5.8324 2.2889 5.8324 6.3182 0 4.0294-2.627 6.2944-5.8324 6.2944z"/>
<path d="m52.541 6.4849c-2.2173 0-4.9889 1.2636-6.3868 3.2426-0.0723-1.9074-1.1086-3.171-2.6029-3.171-1.5665 0-2.8198 1.2636-2.8198 2.7896v25.75c0 1.5497 1.2774 2.7895 2.8198 2.7895 1.5425 0 2.8198-1.2636 2.8198-2.7895v-8.4641c1.0605 1.3829 3.7357 2.7419 6.3868 2.7419 6.2421 0 10.725-5.15 10.725-11.468 0-6.3183-4.5068-11.421-10.942-11.421zm-0.3616 17.739c-3.6151 0-6.1216-2.5034-6.1216-6.2944 0-4.1486 3.0608-6.3182 6.1216-6.3182 3.2295 0 5.8324 2.9803 5.8324 6.3182 0 3.338-2.6029 6.2944-5.8324 6.2944z"/>
</g>
</svg>
