<svg version="1.1" viewBox="0 0 450.9 98.4" xmlns="http://www.w3.org/2000/svg">
<style>.st0{fill:#e51a4a}</style>
<path class="st0" d="m187.7 32.4c-12.2 0-22.2 9.8-22.2 21.8s9.9 21.8 22.2 21.8c12.2 0 22.2-9.8 22.2-21.8s-9.9-21.8-22.2-21.8zm0 34.4c-6.6 0-11.9-5.6-11.9-12.5s5.3-12.5 11.9-12.5 11.9 5.6 11.9 12.5c0.1 6.9-5.3 12.5-11.9 12.5zm-45.8-34.4c-4.7 0-9.1 1.8-12.5 4.8 0 0 0.8-8.8 0.5-14.1s-6.4-5.1-10.1-5.1v35.9c0 8 4.3 22.1 22.1 22.1 11 0 19.9-9.8 19.9-21.8 0.1-12-8.9-21.8-19.9-21.8zm-1.4 34.4c-6.1 0-11.1-5.6-11.1-12.6 0-6.9 5-12.5 11.1-12.5s11.1 5.6 11.1 12.5c0 7-4.9 12.6-11.1 12.6zm138.5-34.4c-4.7 0-9.1 1.8-12.5 4.8 0 0 0.8-8.8 0.5-14.1s-6.4-5.1-10.1-5.1v35.9c0 8 4.3 22.1 22.1 22.1 11 0 19.9-9.8 19.9-21.8s-8.9-21.8-19.9-21.8zm-1.4 34.4c-6.2 0-11.2-5.6-11.2-12.6 0-6.9 5-12.5 11.1-12.5s11.1 5.6 11.1 12.5c0.1 7-4.9 12.6-11 12.6z"/>
<path class="st0" d="m209.6 32 14.1 20.8s-6.3 10.4-7.5 12.5-6.2 9.3-6.2 9.3h8.5c2.7 0 5.4-2.2 6.6-4.5s5.5-9.5 5.5-9.5l4.7 8.6s3 5.4 7.8 5.4h8.4s-6.5-9.4-8.6-12.8-5.7-9-5.7-9l14.2-20.8h-7.9c-2.7 0-6 1.1-7.9 4.6s-4.8 8.3-5.1 9.3c0 0-4.5-8.4-6.6-11.1s-5.2-2.8-6.5-2.8zm128.5 31.3c-2-0.7-4.3 0.8-5.3 1.3s-5.1 2.4-9.9 1.5-9.9-5.1-9.9-10.2h29.1s1.5-8-1.7-14-8.5-9.9-17.9-9.9-17.5 7-19.5 16.5 1.9 21 14.4 25.6 23.2-3.4 25-5.9c0.1 0-1.7-4.1-4.3-4.9zm-13.8-23.5c8.7 0 8.6 8.3 8.6 8.3h-19.7c0-1 2.4-8.3 11.1-8.3zm25.8-7.8v41.6h10.1v-18.8c0-6.6 4.8-16 13.9-12.8v-10.2s-9.8-2.9-14.2 8.3c0 0 1.2-8.1-5.5-8.1zm29.4 0v41.6h10.1v-18.8c0-6.6 4.8-16 13.9-12.8v-10.2s-9.8-2.9-14.2 8.3c0 0 1.2-8.1-5.5-8.1zm27.8-0.1 17.2 40.3s-2.3 5.9-4.5 6.2-5.5 0.8-6.9 3.7-1.8 3.8-1.8 3.8 6.5 3.5 13.2 0.3 7.9-8.6 9-11.5 17.4-42.7 17.4-42.7h-6.6s-5.2-0.1-6.9 5.2c-1.6 5.3-6.7 17.9-7.3 20.5s-0.8 2.9-0.8 2.9-1.1-4-2-6.4c-0.9-2.3-6.4-16-7.3-18.1-0.9-2-2.7-4.1-6-4.1-3.3-0.1-6.7-0.1-6.7-0.1z"/>
<circle cx="49" cy="11.2" r="11.2" fill="#b0ca1f"/>
<circle class="st0" cx="49" cy="87.2" r="11.2"/>
<circle class="st0" cx="30.1" cy="30.5" r="11.2"/>
<circle class="st0" cx="11.2" cy="49.2" r="11.2"/>
<circle class="st0" cx="49" cy="49.2" r="11.2"/>
<circle class="st0" cx="87" cy="49.2" r="11.2"/>
<circle class="st0" cx="67.9" cy="30.5" r="11.2"/>
<circle class="st0" cx="30.1" cy="68.2" r="11.2"/>
<circle class="st0" cx="67.9" cy="68.2" r="11.2"/>
</svg>
