<svg version="1.1" viewBox="0 0 214.25 100" xmlns="http://www.w3.org/2000/svg">
<defs>
<linearGradient id="a" x1="324" x2="639.1" y1="-147.98" y2="78.923" gradientTransform="matrix(.92649 0 0 1.0793 -54.331 -332.69)" gradientUnits="userSpaceOnUse">
<stop stop-color="#a90034" offset="0"/>
<stop stop-color="#b03" offset=".272"/>
<stop stop-color="#d30032" offset=".723"/>
<stop stop-color="#dc0032" offset="1"/>
</linearGradient>
</defs>
<path d="m134.08 73.549a62.055 62.055 0 0 1-14.817 1.706c-12.539 0-20.841-6.673-20.841-18.885 0-11.558 7.733-19.046 19.051-19.046a16.871 16.871 0 0 1 6.837 1.138v-16.778h9.769zm-9.769-26.459a14.187 14.187 0 0 0-6.028-1.14c-5.939 0-9.929 3.665-9.929 10.1 0 6.921 4.314 10.83 11.234 10.83a25.984 25.984 0 0 0 4.723-0.408zm89.933 26.459a62.1 62.1 0 0 1-14.819 1.706c-12.536 0-20.843-6.673-20.843-18.885 0-11.558 7.736-19.046 19.054-19.046a16.877 16.877 0 0 1 6.839 1.138v-16.778h9.769zm-9.769-26.459a14.2 14.2 0 0 0-6.026-1.14c-5.942 0-9.931 3.665-9.931 10.1 0 6.921 4.313 10.83 11.234 10.83a26 26 0 0 0 4.723-0.408zm-55.033-0.08a16.972 16.972 0 0 1 5.858-0.9c6.026 0 10.178 3.5 10.178 9.766 0 7.392-4.6 10.736-10.749 10.822v8.546c0.162 0 0.325 6e-3 0.491 6e-3 12.617 0 20.19-7.081 20.19-19.7 0-11.479-8.059-18.234-19.946-18.234a43.767 43.767 0 0 0-15.876 3.011v48.774h9.853v-42.09z" fill="#414042"/>
<path d="m59.635 44.63a1.514 1.514 0 0 1-1.432-0.027l-2.323-1.381a1.527 1.527 0 0 1-0.494-0.53l-0.023-0.039a1.539 1.539 0 0 1-0.242-0.731l-0.059-2.707a1.512 1.512 0 0 1 0.689-1.249l27.918-16.257-39.177-21.353a3.642 3.642 0 0 0-3.142 0l-39.181 21.353 43.892 25.545a1.494 1.494 0 0 1 0.716 1.227v37.266a1.515 1.515 0 0 1-0.744 1.224l-2.364 1.306a1.529 1.529 0 0 1-0.707 0.16h-0.043a1.547 1.547 0 0 1-0.754-0.16l-2.37-1.312a1.51 1.51 0 0 1-0.732-1.223v-33.221a0.931 0.931 0 0 0-0.394-0.652l-38.669-22.5v44.079a3.473 3.473 0 0 0 1.548 2.7l39.826 23.482a3.4 3.4 0 0 0 3.094 0l39.831-23.482a3.48 3.48 0 0 0 1.542-2.7v-44.083z" fill="url(#a)"/>
</svg>