<svg version="1.1" viewBox="0 0 648 113.76" xmlns="http://www.w3.org/2000/svg">
<path d="m1e-3 0h648v113.76h-648z" fill="#cf291a"/>
<g fill="#fff">
<path d="m71.322 18.627h-31.479s2.817 4.372 2.137 8.647-11.561 51.008-12.436 54.894-3.595 9.813-6.8 11.076h23.221l6.024-24h13.8c6.9 0 35.268-5.926 35.268-28.176s-21.477-22.441-29.735-22.441zm-5.441 32.936h-10.687l4.955-18.071h8.161c4.858 0 11.562 1.36 11.562 7.287s-6.704 10.784-13.991 10.784z"/>
<path d="m135.84 34.95c-16.906 0-37.115 12.727-37.115 34.588s13.117 25.552 28.079 25.552 35.365-12.339 35.365-33.714c-0.388-13.019-3.497-26.426-26.329-26.426zm-8.453 47.51c-6.51 0-9.716-4.275-9.716-12.145s5.344-22.346 15.643-22.346c1.348 0 9.812-1.555 9.812 12.824s-9.23 21.667-15.739 21.667z"/>
<path d="m228.62 40.099-3.595 15.837h-2.915s-4.372-7.482-15.157-7.482-18.266 9.911-18.266 19.723 5.15 14.283 13.7 14.283 15.351-7.481 15.351-7.481h2.817l-3.6 16.225a53.568 53.568 0 0 1-20.5 3.886c-12.048 0-27.2-5.732-27.2-25.941s19.14-33.714 38.28-33.714c13.701 0 21.085 4.664 21.085 4.664z"/>
<path d="m240.57 36.601h53.339l-2.04 11.756-36.24 32.062h29.05l-3.109 13.308h-55.088l2.526-12.048 36.337-31.868h-27.884z"/>
<path d="m301.59 36.601h7.578l3.6-15.739h18.646l-3.692 15.739h17.2l-3.208 12.626h-17l-5.343 23.512c-1.458 6.9 1.554 9.716 6.218 9.716a31.314 31.314 0 0 0 8.938-1.458l-2.72 12.145s-10.979 2.332-17.974 1.943-17.489-5.441-13.8-20.6 7.384-25.553 2.721-25.553c-1.749 0.1-3.486 0-3.486 0z"/>
<path d="m407.2 51.855c-0.777-11.659-12.047-16.9-26.135-16.9s-33.325 8.549-36.143 29.535 11.107 30.649 31.2 30.649c14.85 0 22.622-4.61 22.622-4.61l3.4-14.574h-2.526a39.212 39.212 0 0 1-20.792 6.51c-11.756 0-15.837-6.413-15.837-13.6h41.973s3.015-5.351 2.238-17.01zm-19.237 5.37h-22.638s4.178-9.742 14.282-9.742 8.356 9.744 8.356 9.744z"/>
<path d="m418.47 36.796h22.929l8.356 16.808 14.379-16.808h27.01l-28.953 29.05 15.934 27.787h-21.763l-9.23-17.1-14.088 17.1h-26.913l28.856-29.05z"/>
<path d="m484.05 63.708 5.538 8.939 41.389-39.932h49.647s15.06-7.384 46.636-8.939h-102.21z"/>
<path d="m491.14 75.853 8.939 17.2h10.979c5.052 0 13.893-1.166 27.107-18.46s25.358-33.908 65.581-36.24h-73.743z"/>
</g>
</svg>
