<svg version="1.1" viewBox="0 0 100 100" xmlns="http://www.w3.org/2000/svg">
<path d="m0 0h100v100h-100z" fill="#ba1b02"/>
<g fill="#fff">
<path d="m19.915 28.784 4.184 3.347 26.19-10.011 26.069 10.011 4.138-3.347-29.119-11.38h-1.982z"/>
<path d="m43.009 27.445 7.28-2.9 23.847 9.256-7.865 4.016z"/>
<path d="m26.274 33.804 10.543-4.016 22.927 11.212-9.455 4.845z"/>
<path d="m18.633 31.185 4.8 1.95 3.347 26.776 22.927 20.584-0.837 5.523-25.939-23.262-0.837-1.506z"/>
<path d="m81.834 31.185-4.8 1.95-3.347 26.776-22.927 20.584 0.837 5.523 25.939-23.262 0.837-1.506z"/>
</g>
<path d="m49.034 48.03 1 29.286-20.818-18.714-2.942-24.276z" fill="#d7d7d7"/>
<path d="m51.544 48.03-1.172 29.286 21-18.714 2.928-24.295-7.531 4.351-0.837 14.057-5.857 4.016 0.669-14.392z" fill="#aaa"/>
</svg>
