<svg version="1.1" viewBox="0 0 98.001 98.001" xmlns="http://www.w3.org/2000/svg">
<linearGradient id="a" x1="7.429" x2="293.43" y1="-1297.4" y2="-1537.4" gradientTransform="matrix(.1489 0 0 .1489 6.2433 276.36)" gradientUnits="userSpaceOnUse">
<stop stop-color="#006aad" offset="0"/>
<stop stop-color="#0276b9" offset=".272"/>
<stop stop-color="#0092d6" offset=".722"/>
<stop stop-color="#009adf" offset="1"/>
</linearGradient>
<path d="m65.365 43.74c-0.4 0.23-1.02 0.21-1.4-0.03l-2.28-1.35c-0.18-0.11-0.36-0.3-0.48-0.52a0.076 0.076 0 0 1-0.02-0.04c-0.15-0.24-0.23-0.49-0.24-0.72l-0.06-2.65c-0.02-0.45 0.28-0.99 0.67-1.22l27.36-15.94-38.38-20.92c-0.42-0.24-0.98-0.35-1.54-0.35s-1.12 0.12-1.54 0.35l-38.39 20.93 43 25.03c0.4 0.22 0.7 0.74 0.7 1.2v36.52c0 0.46-0.33 0.99-0.73 1.2l-2.31 1.28c-0.19 0.1-0.44 0.16-0.69 0.16h-0.04c-0.28 0.01-0.54-0.05-0.74-0.16l-2.32-1.29c-0.39-0.21-0.72-0.74-0.72-1.2v-32.54c-0.02-0.24-0.2-0.53-0.39-0.64l-37.88-22.06v43.2c0 0.97 0.68 2.16 1.52 2.65l39.02 23.01c0.42 0.24 0.97 0.37 1.52 0.36 0.55 0 1.1-0.12 1.52-0.36l39.02-23.01c0.83-0.49 1.51-1.68 1.51-2.65v-43.2z" fill="url(#a)"/>
</svg>
