<svg version="1.1" viewBox="0 0 453.14 98.001" xmlns="http://www.w3.org/2000/svg">
<path d="m138.26 48.26v-8.91s-3.29-2.58-9.58-2.58c-6.3 0-18.34 2.74-18.89 17.8-0.57 15.6 12.87 19.16 19.16 19.16 6.3 0 9.86-2.74 9.86-2.74v-8.97s-4.38 3.22-9.31 3.22-10.13-3.83-10.13-10.13 4.38-10.13 10.13-10.13 8.76 3.28 8.76 3.28zm5.19-26.94h9.63v16.81s9.42-2.8 15.48-0.36 6.83 9.63 6.83 12.73c0 3.11 0.15 22.31 0 22.31h-9.58v-22.67c0-4.18-5.86-6.52-12.84-3.82v26.49h-9.53v-51.49zm37.54 51.49h9.53v-22.31c0-4.84 6.11-6.88 12.68-4.28v-8.91s-8.96-1.63-14.77 0.36-7.44 6.98-7.44 13.91zm40.34-36.13c-10.09 0-18.54 6.59-18.54 18.97s10.03 17.93 18.54 17.93 18.39-5.67 18.39-18.45-9.57-18.45-18.39-18.45zm-0.07 28.59c-5.93 0-8.79-4.89-8.79-10.15s2.8-10.18 8.79-10.18c6.19 0 8.79 4.69 8.79 10.16-0.01 5.49-2.86 10.17-8.79 10.17zm77.39-28.59c-10.09 0-18.54 6.59-18.54 18.97s10.03 17.93 18.54 17.93 18.39-5.67 18.39-18.45-9.57-18.45-18.39-18.45zm-0.07 28.59c-5.93 0-8.79-4.89-8.79-10.15s2.8-10.18 8.79-10.18c6.19 0 8.79 4.69 8.79 10.16-0.01 5.49-2.86 10.17-8.79 10.17zm80.11-28.59c-10.09 0-18.54 6.59-18.54 18.97s10.03 17.93 18.54 17.93 18.39-5.67 18.39-18.45-9.58-18.45-18.39-18.45zm-0.07 28.59c-5.93 0-8.79-4.89-8.79-10.15s2.8-10.18 8.79-10.18c6.19 0 8.79 4.69 8.79 10.16-0.01 5.49-2.86 10.17-8.79 10.17zm-134.52 7.44h9.58v-26.33s3.92-1.58 8.05-1.12 4.84 4.02 4.84 5.76v21.7h9.58v-23.28c0-8.3-5.5-12.75-15.18-12.75s-16.86 3.02-16.86 3.02v33zm76.92 14.36h9.63v-41.1s6.21-1.78 10.44 0 5.2 6.11 5.2 9.68-2.6 9.53-10.49 9.53v8.4s9.27 0.41 14.52-4.69c5.25-5.09 7.18-14.62 4.18-22.21s-12.02-10.39-18.9-10.19-13.14 2.55-14.57 3.11v47.47zm102.68-39.73v-8.4s-4.07-2.8-10.49-2.8-13.35 3.06-13.35 11.61 7.49 10.14 10.9 10.8 5.65 1.17 5.65 3.87-2.65 2.95-4.64 2.95-5.81-0.41-11.36-3.77v8.76s3.72 2.75 12.07 2.75 13.4-3.67 13.4-11.66-6.52-9.68-10.34-10.54-6.42-1.73-6.42-3.97c0.01-3.42 7.55-4.74 14.58 0.4zm29.44 16.81c-7.64 2.5-12.89 0.15-12.89-3.87v-14.92h12.38v-7.95h-12.43v-13.04c0-0.2-9.63 0-9.63 0v36.37c0 7.95 5.7 12.99 14.06 12.99 5.91 0 8.51-0.87 8.51-0.87z" fill="#414042"/>
<linearGradient id="a" x1="7.429" x2="293.43" y1="-1297.4" y2="-1537.4" gradientTransform="matrix(.1489 0 0 .1489 -.702 276.36)" gradientUnits="userSpaceOnUse">
<stop stop-color="#006aad" offset="0"/>
<stop stop-color="#0276b9" offset=".272"/>
<stop stop-color="#0092d6" offset=".722"/>
<stop stop-color="#009adf" offset="1"/>
</linearGradient>
<path d="m58.42 43.74c-0.4 0.23-1.02 0.21-1.4-0.03l-2.28-1.35c-0.18-0.11-0.36-0.3-0.48-0.52a0.076 0.076 0 0 1-0.02-0.04c-0.15-0.24-0.23-0.49-0.24-0.72l-0.06-2.65c-0.02-0.45 0.28-0.99 0.67-1.22l27.36-15.94-38.38-20.92c-0.42-0.24-0.98-0.35-1.54-0.35s-1.12 0.12-1.54 0.35l-38.39 20.93 43 25.03c0.4 0.22 0.7 0.74 0.7 1.2v36.52c0 0.46-0.33 0.99-0.73 1.2l-2.31 1.28c-0.19 0.1-0.44 0.16-0.69 0.16h-0.04c-0.28 0.01-0.54-0.05-0.74-0.16l-2.32-1.29c-0.39-0.21-0.72-0.74-0.72-1.2v-32.54c-0.02-0.24-0.2-0.53-0.39-0.64l-37.88-22.06v43.2c0 0.97 0.68 2.16 1.52 2.65l39.02 23.01c0.42 0.24 0.97 0.37 1.52 0.36 0.55 0 1.1-0.12 1.52-0.36l39.02-23.01c0.83-0.49 1.51-1.68 1.51-2.65v-43.2z" fill="url(#a)"/>
</svg>
