<svg version="1.1" viewBox="0 0 96.91 96.91" xmlns="http://www.w3.org/2000/svg">
<style>.bg{fill:#414042}</style>
<linearGradient id="a" x1="11.485" x2="73.012" y1="59.939" y2="41.626" gradientTransform="translate(3.5577 -1.525)" gradientUnits="userSpaceOnUse">
<stop stop-color="#ec6608" offset=".144"/>
<stop stop-color="#fab506" offset="1"/>
</linearGradient>
<path d="m90.058 28.675v41.8c0 1.9-0.7 2.9-2.4 3.9s-36.7 21.5-37.8 22.2-2.6 0.1-2.9 0c-0.2-0.1-36.7-21.7-38.5-22.7-1.8-1-1.6-2.8-1.6-3.3v-42.1s36.9 21.4 37.4 21.7 0.5 1 0.5 1.5v30.7c0 0.9 0.3 1.7 0.8 2s1.8 1.1 2.3 1.3c0.4 0.2 1.1 0.1 1.3 0s1.9-1.1 2.3-1.3 0.7-0.6 0.7-1.6v-35.7c0-0.8-0.7-1.2-1.1-1.4-0.4-0.4-42.1-24.7-42.1-24.7s37.1-20 37.9-20.6c0.8-0.5 2.4-0.5 3.3 0s37.7 20.6 37.7 20.6-25.6 15-26.8 15.6c-0.8 0.5-0.8 1-0.8 1.4v2.3c0 0.5 0.3 1.2 0.9 1.6 0.7 0.4 1.5 0.9 1.9 1.2 0.5 0.2 1.2 0.3 1.9-0.1 0.7-0.3 25.1-14.3 25.1-14.3z" fill="url(#a)"/>
</svg>