<svg version="1.1" viewBox="0 0 17.76 22.996" xmlns="http://www.w3.org/2000/svg">
<defs>
<clipPath id="a">
<rect transform="translate(2312,2650)" width="28" height="23" rx="8" fill="none"/>
</clipPath>
</defs>
<g transform="translate(-2317.6 -2650)" clip-path="url(#a)">
<g fill-rule="evenodd">
<path d="m2326.5 2673a74.366 74.366 0 0 1-5.25-6.3c-1.71-2.2-3.645-4.326-3.677-7.784-0.062-7.8 9.494-11.816 15.05-6.479a8.9 8.9 0 0 1 2.709 6.211c0.05 3.558-1.86 5.805-3.589 8.046s-3.583 4.346-5.243 6.306z"/>
<path d="m2332.6 2660.8h-2.235c0.119-1.105 2.129-1.161 2.235 0z"/>
<path d="m2326.3 2664.3h0.35a3.18 3.18 0 0 1 2.029 0.824 2.906 2.906 0 0 1 0.325 0.325 3.309 3.309 0 0 1 0.793 1.91c0 0.206 0.019 0.337 0 0.618a3.444 3.444 0 0 1-0.587 1.673c-0.256 0.343-0.5 0.7-0.762 1.03-0.655 0.78-1.28 1.6-2 2.322-0.737-0.9-1.492-1.766-2.235-2.653-0.181-0.25-0.206-0.306-0.293-0.443a3.977 3.977 0 0 1-0.793-1.966 3.332 3.332 0 0 1 3.173-3.64z" fill="#692e8b"/>
<path d="m2328.3 2670.3a4.171 4.171 0 0 0 1.2-2.7 2.981 2.981 0 0 0-5.961 0.087 4.186 4.186 0 0 0 1.236 2.615 25.917 25.917 0 0 0 1.76 2.116c0.56-0.663 1.185-1.362 1.765-2.118z" fill="#501e75"/>
</g>
<path d="m2323.1 2655.7-0.805 0.144a0.574 0.574 0 0 0-0.181-0.362 0.553 0.553 0 0 0-0.375-0.125 0.612 0.612 0 0 0-0.487 0.212 1.088 1.088 0 0 0-0.181 0.705 1.281 1.281 0 0 0 0.181 0.774 0.608 0.608 0 0 0 0.493 0.225 0.553 0.553 0 0 0 0.381-0.131 0.758 0.758 0 0 0 0.206-0.456l0.8 0.137a1.4 1.4 0 0 1-0.481 0.83 1.481 1.481 0 0 1-0.949 0.281 1.405 1.405 0 0 1-1.074-0.424 1.637 1.637 0 0 1-0.4-1.18 1.656 1.656 0 0 1 0.406-1.186 1.438 1.438 0 0 1 1.092-0.424 1.47 1.47 0 0 1 0.893 0.243 1.311 1.311 0 0 1 0.481 0.737zm0.431 0.587a1.711 1.711 0 0 1 0.2-0.787 1.378 1.378 0 0 1 0.568-0.581 1.7 1.7 0 0 1 0.818-0.2 1.509 1.509 0 0 1 1.142 0.456 1.557 1.557 0 0 1 0.443 1.149 1.576 1.576 0 0 1-0.449 1.155 1.529 1.529 0 0 1-1.136 0.462 1.74 1.74 0 0 1-0.805-0.194 1.31 1.31 0 0 1-0.587-0.562 1.99 1.99 0 0 1-0.196-0.898zm0.836 0.044a1.019 1.019 0 0 0 0.218 0.7 0.714 0.714 0 0 0 1.074 0 1.037 1.037 0 0 0 0.218-0.705 1.013 1.013 0 0 0-0.218-0.693 0.714 0.714 0 0 0-1.074 0 0.979 0.979 0 0 0-0.218 0.697zm2.977 1.536v-4.252h0.811v4.251zm1.648-3.5v-0.752h0.811v0.755zm0 3.5v-3.077h0.811v3.077zm1.361-0.88 0.818-0.125a0.621 0.621 0 0 0 0.212 0.362 0.719 0.719 0 0 0 0.443 0.125 0.771 0.771 0 0 0 0.474-0.119 0.266 0.266 0 0 0 0.106-0.218 0.228 0.228 0 0 0-0.056-0.156 0.663 0.663 0 0 0-0.275-0.106 4.165 4.165 0 0 1-1.248-0.4 0.8 0.8 0 0 1-0.362-0.693 0.851 0.851 0 0 1 0.318-0.674 1.481 1.481 0 0 1 0.98-0.275 1.692 1.692 0 0 1 0.936 0.206 1.059 1.059 0 0 1 0.424 0.605l-0.768 0.144a0.458 0.458 0 0 0-0.187-0.275 0.7 0.7 0 0 0-0.393-0.094 0.942 0.942 0 0 0-0.462 0.087 0.2 0.2 0 0 0-0.094 0.162 0.184 0.184 0 0 0 0.081 0.15 2.97 2.97 0 0 0 0.762 0.231 2.331 2.331 0 0 1 0.911 0.362 0.76 0.76 0 0 1 0.256 0.605 0.939 0.939 0 0 1-0.356 0.73 1.592 1.592 0 0 1-1.049 0.306 1.718 1.718 0 0 1-0.992-0.256 1.138 1.138 0 0 1-0.478-0.685zm-9.969 6.979v-4.257h0.474v0.4a1.114 1.114 0 0 1 0.381-0.35 1.018 1.018 0 0 1 0.512-0.119 1.236 1.236 0 0 1 0.693 0.2 1.277 1.277 0 0 1 0.456 0.574 2.136 2.136 0 0 1 0.156 0.811 2.061 2.061 0 0 1-0.169 0.849 1.287 1.287 0 0 1-0.493 0.581 1.248 1.248 0 0 1-0.68 0.2 0.962 0.962 0 0 1-0.468-0.112 1.168 1.168 0 0 1-0.343-0.281v1.5h-0.518zm0.468-2.7a1.346 1.346 0 0 0 0.243 0.88 0.744 0.744 0 0 0 0.581 0.281 0.753 0.753 0 0 0 0.593-0.293 1.406 1.406 0 0 0 0.25-0.911 1.346 1.346 0 0 0-0.243-0.88 0.714 0.714 0 0 0-1.167 0.019 1.421 1.421 0 0 0-0.256 0.899zm2.828 1.523v-3.077h0.468v0.468a1.261 1.261 0 0 1 0.331-0.431 0.584 0.584 0 0 1 0.337-0.106 1.019 1.019 0 0 1 0.537 0.169l-0.181 0.487a0.744 0.744 0 0 0-0.381-0.112 0.486 0.486 0 0 0-0.306 0.1 0.526 0.526 0 0 0-0.193 0.287 2.087 2.087 0 0 0-0.087 0.605v1.61zm1.985-3.645v-0.6h0.524v0.6zm0 3.645v-3.077h0.524v3.077zm2.166 0-1.167-3.077h0.549l0.662 1.841c0.069 0.2 0.137 0.406 0.2 0.618 0.044-0.162 0.112-0.356 0.194-0.587l0.687-1.879h0.537l-1.164 3.073h-0.5zm4.22-0.992 0.537 0.069a1.309 1.309 0 0 1-0.474 0.73 1.6 1.6 0 0 1-1.954-0.156 1.63 1.63 0 0 1-0.393-1.167 1.692 1.692 0 0 1 0.4-1.2 1.352 1.352 0 0 1 1.036-0.431 1.319 1.319 0 0 1 1.011 0.418 1.663 1.663 0 0 1 0.393 1.18v0.137h-2.3a1.15 1.15 0 0 0 0.287 0.774 0.853 0.853 0 0 0 0.643 0.268 0.78 0.78 0 0 0 0.487-0.15 0.851 0.851 0 0 0 0.327-0.477zm-1.71-0.843h1.717a1.013 1.013 0 0 0-0.2-0.581 0.805 0.805 0 0 0-0.649-0.3 0.829 0.829 0 0 0-0.605 0.243 0.96 0.96 0 0 0-0.263 0.633zm0.562-1.623 0.387-0.811h0.687l-0.637 0.811z" fill="#fff"/>
</g>
</svg>
