<svg version="1.1" viewBox="0 0 100 100" xmlns="http://www.w3.org/2000/svg">
<defs>
<linearGradient id="a" x1="324" x2="639.1" y1="-147.98" y2="78.923" gradientTransform="matrix(.92649 0 0 1.0793 -47.25 -332.69)" gradientUnits="userSpaceOnUse">
<stop stop-color="#a90034" offset="0"/>
<stop stop-color="#b03" offset=".272"/>
<stop stop-color="#d30032" offset=".723"/>
<stop stop-color="#dc0032" offset="1"/>
</linearGradient>
</defs>
<path d="m66.716 44.63a1.514 1.514 0 0 1-1.432-0.027l-2.323-1.381a1.527 1.527 0 0 1-0.494-0.53l-0.023-0.039a1.539 1.539 0 0 1-0.242-0.731l-0.059-2.707a1.512 1.512 0 0 1 0.689-1.249l27.918-16.257-39.177-21.353a3.642 3.642 0 0 0-3.142 0l-39.181 21.353 43.892 25.545a1.494 1.494 0 0 1 0.716 1.227v37.266a1.515 1.515 0 0 1-0.744 1.224l-2.364 1.306a1.529 1.529 0 0 1-0.707 0.16h-0.043a1.547 1.547 0 0 1-0.754-0.16l-2.37-1.312a1.51 1.51 0 0 1-0.732-1.223v-33.221a0.931 0.931 0 0 0-0.394-0.652l-38.669-22.5v44.079a3.473 3.473 0 0 0 1.548 2.7l39.826 23.482a3.4 3.4 0 0 0 3.094 0l39.831-23.482a3.48 3.48 0 0 0 1.542-2.7v-44.083z" fill="url(#a)"/>
</svg>