<svg version="1.1" viewBox="0 0 379.01 96.91" xmlns="http://www.w3.org/2000/svg">
<style>.bg{fill:#414042}</style>
<linearGradient id="a" x1="11.485" x2="73.012" y1="59.939" y2="41.626" gradientTransform="translate(-3.2934 -1.525)" gradientUnits="userSpaceOnUse">
<stop stop-color="#ec6608" offset=".144"/>
<stop stop-color="#fab506" offset="1"/>
</linearGradient>
<path d="m83.207 28.675v41.8c0 1.9-0.7 2.9-2.4 3.9s-36.7 21.5-37.8 22.2-2.6 0.1-2.9 0c-0.2-0.1-36.7-21.7-38.5-22.7s-1.6-2.8-1.6-3.3v-42.1s36.9 21.4 37.4 21.7 0.5 1 0.5 1.5v30.7c0 0.9 0.3 1.7 0.8 2s1.8 1.1 2.3 1.3c0.4 0.2 1.1 0.1 1.3 0s1.9-1.1 2.3-1.3 0.7-0.6 0.7-1.6v-35.7c0-0.8-0.7-1.2-1.1-1.4-0.4-0.4-42.1-24.7-42.1-24.7s37.1-20 37.9-20.6c0.8-0.5 2.4-0.5 3.3 0s37.7 20.6 37.7 20.6-25.6 15-26.8 15.6c-0.8 0.5-0.8 1-0.8 1.4v2.3c0 0.5 0.3 1.2 0.9 1.6 0.7 0.4 1.5 0.9 1.9 1.2 0.5 0.2 1.2 0.3 1.9-0.1 0.7-0.3 25.1-14.3 25.1-14.3z" fill="url(#a)"/>
<path class="bg" d="m137.31 47.675v-8.7s-3.2-2.5-9.4-2.5-18 2.7-18.5 17.4c-0.6 15.3 12.6 18.8 18.8 18.8s9.7-2.7 9.7-2.7v-8.8s-4.3 3.2-9.1 3.2-9.9-3.7-9.9-9.9 4.3-9.9 9.9-9.9c5.6-0.1 8.5 3.1 8.5 3.1zm21.2-11.2c-9.9 0-18.2 6.5-18.2 18.6s9.8 17.6 18.2 17.6c8.3 0 18-5.6 18-18.1s-9.4-18.1-18-18.1zm-0.1 28c-5.8 0-8.6-4.8-8.6-10s2.7-10 8.6-10c6.1 0 8.6 4.6 8.6 10s-2.8 10-8.6 10zm202.6-28c-9.9 0-18.2 6.5-18.2 18.6s9.8 17.6 18.2 17.6c8.3 0 18-5.6 18-18.1s-9.4-18.1-18-18.1zm-0.1 28c-5.8 0-8.6-4.8-8.6-10s2.7-10 8.6-10c6.1 0 8.6 4.6 8.6 10s-2.8 10-8.6 10zm-123.3-17.5v-8.3s-4-2.8-10.4-2.8-13.2 3-13.2 11.5 7.4 10 10.8 10.7 5.6 1.2 5.6 3.8c0 2.7-2.6 2.9-4.6 2.9s-5.7-0.4-11.2-3.7v8.7s3.7 2.7 11.9 2.7 13.3-3.6 13.3-11.5-6.4-9.6-10.2-10.4c-3.8-0.9-6.4-1.7-6.4-3.9 0-3.5 7.5-4.8 14.4 0.3zm28.3 0v-8.3s-4-2.8-10.4-2.8-13.2 3-13.2 11.5 7.4 10 10.8 10.7 5.6 1.2 5.6 3.8c0 2.7-2.6 2.9-4.6 2.9s-5.7-0.4-11.2-3.7v8.7s3.7 2.7 11.9 2.7c8.3 0 13.3-3.6 13.3-11.5s-6.4-9.6-10.2-10.4c-3.8-0.9-6.4-1.7-6.4-3.9 0-3.5 7.5-4.8 14.4 0.3zm-66.7-9.9h9.4v34.9h-9.4z"/>
<circle class="bg" cx="203.91" cy="27.775" r="4.6"/>
<path class="bg" d="m272.11 37.075h9.4v34.9h-9.4z"/>
<circle class="bg" cx="276.81" cy="27.775" r="4.6"/>
<path class="bg" d="m288.31 71.975h9.3v-26.4s2.3-1 6-1c3.6 0 5.3 2.2 5.3 5.1s-0.1 22.3 0 22.3h9.4v-22c0-1.5-0.3-3.2-0.6-4 1.9-0.9 4.1-1.4 6.6-1.4s5.3 1.3 5.3 4.6v22.8h9.4v-23.3c0-6-2.7-12.2-13.1-12.2-6.1 0-10.1 1.9-12.4 2.7-2.9-2.3-7.3-2.7-9.7-2.7s-8.8 0.4-15.6 3v32.5zm-107.9-50.7h9.3v37.7c0 4.7 5.2 5 5.2 5v8.5c-5.5 0-14.4-1.7-14.4-13.3s-0.1-37.9-0.1-37.9z"/>
</svg>