<svg version="1.1" viewBox="0 0 378.3 58.4" xmlns="http://www.w3.org/2000/svg">
<style>.st0{fill:#3e3f3c}</style>
<path class="st0" d="m29.4 0c-16.2 0-29.4 12.8-29.4 28.5s13.2 28.6 29.4 28.6h29.4v-28.6c0.1-15.7-13.1-28.5-29.4-28.5zm0 42.9c-7.9 0-14.4-6.4-14.4-14.4s6.4-14.4 14.4-14.4c7.9 0 14.4 6.4 14.4 14.4s-6.5 14.4-14.4 14.4z"/>
<circle cx="29.4" cy="28.6" r="6.8" fill="#d66649"/>
<path class="st0" d="m123.9 57.9h-4.3c-1.5 0-2.7-1.2-2.7-2.7v-31.9c0-1.5 1.2-2.7 2.7-2.7h4.3c1.5 0 2.7 1.2 2.7 2.7v31.8c0 1.6-1.2 2.8-2.7 2.8zm177 0c-2.7 0-4.8-2.2-4.8-4.8v-27.6c0-2.7 2.2-4.8 4.8-4.8 2.7 0 4.8 2.2 4.8 4.8v27.6c0.1 2.6-2.1 4.8-4.8 4.8zm-124.2 0c-2.7 0-4.8-2.2-4.8-4.8v-47.2c0-2.7 2.2-4.8 4.8-4.8 2.7 0 4.8 2.2 4.8 4.8v47.2c0.1 2.6-2.1 4.8-4.8 4.8zm-79.5-48.2h-16.3c-2.7 0-4.8 2.2-4.8 4.8v38.5c0 2.7 2.2 4.8 4.8 4.8s4.8-2.2 4.8-4.8v-12.6h11.4c8.5 0 15.4-6.9 15.4-15.4s-6.8-15.3-15.3-15.3zm-0.1 21h-11.3v-11.3h11.3c3.1 0 5.7 2.5 5.7 5.7s-2.6 5.6-5.7 5.6zm137.3-21h-16.3c-2.7 0-4.8 2.2-4.8 4.8v38.5c0 2.7 2.2 4.8 4.8 4.8s4.8-2.2 4.8-4.8v-12.6h11.4c8.5 0 15.4-6.9 15.4-15.4s-6.8-15.3-15.3-15.3zm-0.1 21h-11.3v-11.3h11.3c3.1 0 5.7 2.5 5.7 5.7s-2.6 5.6-5.7 5.6zm-77.1 15.3c-1.6 1.6-3.9 2.6-6.4 2.6-5 0-9-4-9-9s4-9 9-9c2.5 0 4.7 1 6.4 2.6 1.7 1.8 5 2.3 7.1 0.3s2.1-4.9-0.1-7.2c-3.4-3.4-8.1-5.5-13.3-5.5-10.4 0-18.8 8.4-18.8 18.8s8.4 18.8 18.8 18.8c5.2 0 9.9-2.1 13.3-5.5 2.5-2.4 1.6-5.4 0.4-6.8s-4.4-3-7.4-0.1zm40.7 10.1c1.7 2.1 4.7 2.4 6.8 0.7s2.4-4.7 0.7-6.8l-10.2-12.7 9.8-9.8c1.9-1.9 1.9-5 0-6.9s-5-1.9-6.9 0l-12.9 12.9c-1.9 1.9-1.8 4.8 0 6.9zm72-35.5c-10.3 0-18.6 8.3-18.6 18.6s8.3 18.6 18.6 18.6 18.6-8.3 18.6-18.6-8.3-18.6-18.6-18.6zm0 27.6c-4.9 0-8.9-4-8.9-8.9s4-8.9 8.9-8.9 8.9 4 8.9 8.9c0.1 4.9-3.9 8.9-8.9 8.9z"/>
<circle class="st0" cx="121.8" cy="10.6" r="6.2"/>
<circle class="st0" cx="300.9" cy="10.6" r="6.2"/>
<path class="st0" d="m333.2 20.6c-4.8 0-8.1 1.6-10.2 3.2-0.7-1.8-2.4-3.2-4.5-3.2-2.7 0-4.8 2.2-4.8 4.8v27.6c0 2.7 2.2 4.8 4.8 4.8s4.8-2.2 4.8-4.8v-17.3c0-2.4 2.7-6.5 7.3-6.5 4.3 0 6.6 3.1 6.6 7.9v15.9c0 2.7 2.2 4.8 4.8 4.8 2.7 0 4.8-2.2 4.8-4.8v-17.9c0-8.5-4.5-14.5-13.6-14.5zm40.8 28.6h-4.2c-3.1 0-3.7-2.2-3.7-4.8v-15.1h7.8c2.4 0 4.3-1.9 4.3-4.3s-1.9-4.3-4.3-4.3h-7.8v-5.2c0-2.7-2.2-4.8-4.8-4.8s-4.8 2.2-4.8 4.8v5.2h-2.1c-2.4 0-4.3 1.9-4.3 4.3s1.9 4.3 4.3 4.3h2.1v15.2c0 4.7 1.2 7.4 4.1 10.2s6.6 3.2 8.7 3.2h4.7c2.4 0 4.3-1.9 4.3-4.3 0-2.5-1.9-4.4-4.3-4.4z"/>
</svg>