<svg version="1.1" viewBox="0 0 31.658 25.658" xmlns="http://www.w3.org/2000/svg">
<path d="m8.1235 10.006h8.806l-1.329 7h-2.483l0.618-3.181s-2.067 3.235-7.289 3.235c-5.222 0-6.3-2.846-6.3-2.846-0.568-1.638 0.389-4.175 4.5-5.625 0 0-3.88 1.6-3.866 4.235s5.464 3.282 7.96 1.631c1.893-1.289 2.2-2.134 2.2-2.134h-3.287z" fill="#febd10"/>
<g transform="translate(-244.6 -257.99)" fill="#001853">
<path transform="translate(-458.63,-37.266)" d="m726.48 307.29 0.336-1.772a7.882 7.882 0 0 0-2.792-0.215 4.251 4.251 0 0 0-3.477 3.249c-0.51 2.121 0.362 3.826 2.806 3.772a6.873 6.873 0 0 0 2.215-0.456l0.685-3.4h-1.785l-0.362 2.067s-1.007 0.255-1.45-0.3a2.353 2.353 0 0 1 0.957-3.074c1.014-0.582 2.867 0.129 2.867 0.129z"/>
<path transform="translate(-614.45,-37.266)" d="m883.41 305.25h1.772l-1.02 5.25h1.5l-0.362 1.732h-3.249z"/>
<path transform="translate(-720.97,-37.262)" d="m996.91 306.92 0.322-1.584a6.618 6.618 0 0 0-2.2 0 2.377 2.377 0 0 0-1.852 2.43 2.061 2.061 0 0 0 1.262 1.745c0.483 0.282 0.6 0.685 0.309 0.966a2.7 2.7 0 0 1-1.866 0l-0.322 1.678a4.277 4.277 0 0 0 3.276-0.47 2.091 2.091 0 0 0 0.523-3.155c-0.7-0.631-1.383-0.819-1.208-1.423s1.636-0.281 1.756-0.187z"/>
</g>
</svg>
