<svg version="1.1" viewBox="0 .316 380.93 70.613" xmlns="http://www.w3.org/2000/svg">
<g transform="translate(-2.683,-1.684)">
<polygon points="340.16 21.976 340.16 21.976 383.61 8.118 330.59 8.096" fill="#b80f2f"/>
<polygon points="340.14 39.494 340.16 21.976 332.93 24.276 332.9 44.716" fill="#ed7900"/>
<polygon points="332.93 24.276 340.16 21.976 340.16 21.976 330.59 8.096 321.4 8.095" fill="#f4a200"/>
<polygon points="340.14 39.494 383.61 8.118 340.16 21.976" fill="#83221c"/>
<path d="m104.72 20.166h0.086v52.214h-15.343v-21.43h-14.772v21.43h-15.341v-52.214h15.342v19.497h14.772v-19.497zm11.148 0v52.214h15.345v-52.214h-0.085zm165.91 17.985 15.086-4.426v-3.426c0.465-0.078 1.082-0.156 2.783-0.156 1.625 0 3.207 0.495 4.441 1.449l15.33-4.528c-3.48-5.469-10.33-7.749-18.846-7.749-7.732 0-18.803 0.852-18.803 0.852zm-252.17-9.711c-3.233-0.882-8.128-2.152-7.934-6.168 0.197-3.724 3.134-5.192 6.761-5.192 3.916 0 6.852 1.565 9.596 5.094l11.359-7.151c-5.19-9.107-13.417-13.023-21.644-13.023-11.064 0-22.915 5.776-23.208 20.272-0.197 14.492 13.612 19.292 20.859 21.153h-0.099c4.014 1.078 9.012 3.134 8.718 8.125-0.196 3.233-2.941 5.782-6.857 5.683-3.036 0-8.225-0.488-13.22-7.542l-11.262 8.227c6.364 11.459 16.649 14.688 24.19 14.688 11.458 0 23.796-6.17 24.482-20.174 0.588-15.961-10.966-21.151-21.741-23.992zm212.79 17.485c0-11.99 2.709-15.782 7.896-15.782 5.137 0 7.762 3.643 7.879 15.001l15.254-4.504c-1.42-15.771-9.549-21.479-23.133-21.479-14.938 0-23.365 6.961-23.365 26.766 0 3.053 0.203 5.797 0.604 8.262l14.981-4.422c-0.073-1.18-0.116-2.452-0.116-3.842zm71.633 4.871c2.711-1.006 7.896-4.871 7.896-13.999 0-2.661-0.4-4.972-1.146-6.972l-14.551 5.026c0.146 0.552 0.23 1.146 0.23 1.79 0 4.486-3.789 6.42-6.354 6.42h-3.244v-4.974l-15.088 5.206v29.087h15.131l-0.043-18.949h3.104l9.119 15.543c1.23 2.398 3.396 3.637 6.343 3.637 3.399 0 6.647-1.469 10.288-4.717-1.545-1.548-2.396-1.703-11.685-17.098zm-63.735 10.829c-3.139 0-5.357-1.428-6.629-5.154l-14.107 4.871c3.564 8.104 10.676 11.271 20.736 11.271 14.955 0 23.301-6.92 23.354-26.502l-15.721 5.435c-0.781 7.468-3.318 10.079-7.633 10.079zm-65.842-29.839h13.103v31.252l15.344-4.531v-26.721h12.873v-12.084h-41.314v12.084zm-2.314 6.17c0 12.303-8.274 17.635-19.803 17.635-1.16 0-3.713-0.229-5.262-0.459v17.248h-15.004v-52.214c3.171-0.311 10.984-0.852 18.719-0.852 12.457 1e-3 21.35 6.032 21.35 18.642zm-15.471-0.541c0-5.568-3.33-7.272-6.813-7.272-1.698 0-2.471 0.078-2.782 0.156 0 2.165 0.077 11.061 0 14.464 0.853 0.156 1.549 0.156 2.862 0.156 3.484 0 6.733-1.623 6.733-7.504zm30.948 34.965h15.283c0-2.438-0.01-4.621-0.014-5.278z" fill="#004865"/>
</g>
</svg>
