<svg version="1.1" viewBox="0 0 60.462 86.306" xmlns="http://www.w3.org/2000/svg">
<path d="m30.188 86.306-24.2-35.1a29.346 29.346 0 0 1-4.834-10.2 35.636 35.636 0 0 1-1.065-11.517 35.215 35.215 0 0 1 2.609-11.236 28.54 28.54 0 0 1 6.191-9.352 30.083 30.083 0 0 1 21.4-8.9 29.748 29.748 0 0 1 21.4 8.9c10.516 10.516 11.778 30.33 2.7 42.4l-24.2 35zm0.3-68.3a11.915 11.915 0 0 0-8.475 3.525 11.914 11.914 0 0 0-3.525 8.475 11.913 11.913 0 0 0 3.525 8.475 11.915 11.915 0 0 0 8.475 3.525 11.914 11.914 0 0 0 8.475-3.525 11.914 11.914 0 0 0 3.525-8.475 11.914 11.914 0 0 0-3.525-8.475 11.914 11.914 0 0 0-8.474-3.525z" fill="#6480ff"/>
</svg>