<svg version="1.1" viewBox="0 0 26.74 40.109" xmlns="http://www.w3.org/2000/svg">
<circle cx="13.37" cy="11.69" r="10.6" fill="#fff"/>
<circle cx="13.37" cy="11.69" r="4.178" fill="#f7ad37"/>
<path d="m13.367 5.528e-8a13.372 13.372 0 0 0-11.762 19.724l11.034 19.955a0.836 0.836 0 0 0 1.462 0l11.038-19.962a13.372 13.372 0 0 0-11.772-19.717zm6.948 19.37c-0.548-0.429-1.114-0.864-1.232-0.933a10.336 10.336 0 0 0-11.43 0c-0.119 0.07-0.685 0.505-1.234 0.935a9.192 9.192 0 1 1 13.9 0z" fill="#f7ad37"/>
</svg>
